<svg width="200" height="200" viewBox="0 0 200 200" fill="none" xmlns="http://www.w3.org/2000/svg">
<path d="M133.229 60.4683H127.376C126.988 60.4683 126.615 60.3141 126.341 60.0397C126.066 59.7652 125.912 59.393 125.912 59.0049V53.4146C125.912 53.1943 125.869 52.9761 125.785 52.7725C125.7 52.5689 125.577 52.3839 125.421 52.2281C125.265 52.0722 125.08 51.9486 124.876 51.8643C124.673 51.78 124.455 51.7366 124.234 51.7366H75.7659C75.5455 51.7366 75.3273 51.78 75.1237 51.8643C74.9202 51.9486 74.7352 52.0722 74.5793 52.2281C74.4235 52.3839 74.2999 52.5689 74.2156 52.7725C74.1313 52.9761 74.0879 53.1943 74.0879 53.4146V59.0049C74.0879 59.393 73.9337 59.7652 73.6592 60.0397C73.3848 60.3141 73.0126 60.4683 72.6244 60.4683H66.7708C66.3827 60.4683 66.0104 60.3141 65.736 60.0397C65.4616 59.7652 65.3074 59.393 65.3074 59.0049V53.4146C65.31 50.6416 66.4127 47.983 68.3735 46.0222C70.3343 44.0614 72.9929 42.9587 75.7659 42.9561H124.234C127.007 42.9587 129.666 44.0614 131.627 46.0222C133.587 47.983 134.69 50.6416 134.693 53.4146V59.0049C134.693 59.393 134.539 59.7652 134.264 60.0397C133.99 60.3141 133.617 60.4683 133.229 60.4683ZM128.839 57.5414H131.766V53.4146C131.766 51.4171 130.972 49.5014 129.56 48.0889C128.147 46.6764 126.232 45.8829 124.234 45.8829H75.7659C74.7768 45.8829 73.7974 46.0777 72.8836 46.4562C71.9699 46.8347 71.1396 47.3895 70.4402 48.0889C69.7408 48.7883 69.186 49.6186 68.8075 50.5324C68.429 51.4462 68.2342 52.4255 68.2342 53.4146V57.5414H71.161V53.4146C71.161 52.1933 71.6462 51.0221 72.5098 50.1585C73.3733 49.2949 74.5446 48.8097 75.7659 48.8097H124.234C125.455 48.8097 126.627 49.2949 127.49 50.1585C128.354 51.0221 128.839 52.1933 128.839 53.4146V57.5414Z" fill="#1682FC"/>
<path d="M43.1317 137.99C43.8961 140.37 45.3962 142.446 47.416 143.919C49.4358 145.392 51.871 146.185 54.3707 146.185H145.629C148.129 146.185 150.564 145.392 152.584 143.919C154.604 142.446 156.104 140.37 156.868 137.99H43.1317Z" fill="#686868"/>
<path d="M48.7414 134.38V76.839C48.7414 75.2892 49.0468 73.7547 49.6402 72.323C50.2336 70.8913 51.1033 69.5906 52.1996 68.4952C53.2959 67.3998 54.5973 66.5311 56.0295 65.939C57.4617 65.3468 58.9965 65.0426 60.5463 65.0439H54.3707C52.8209 65.0426 51.2861 65.3468 49.8539 65.939C48.4217 66.5311 47.1203 67.3998 46.024 68.4952C44.9276 69.5906 44.0579 70.8913 43.4646 72.323C42.8712 73.7547 42.5658 75.2892 42.5658 76.839V134.38C42.5658 137.511 43.8095 140.514 46.0234 142.728C48.2372 144.942 51.2398 146.185 54.3707 146.185H60.5463C57.4154 146.185 54.4128 144.942 52.199 142.728C49.9851 140.514 48.7414 137.511 48.7414 134.38Z" fill="#6B6B6B"/>
<path d="M113.659 99.8439H105.766V91.9512H94.2341V99.8439H86.3414V111.376H94.2341V119.278H105.766V111.376H113.659V99.8439Z" fill="#1682FC"/>
<path d="M153.785 74.3415H147.932C147.802 74.3415 147.678 74.2901 147.587 74.1986C147.495 74.1071 147.444 73.983 147.444 73.8536C147.444 73.7243 147.495 73.6002 147.587 73.5087C147.678 73.4172 147.802 73.3658 147.932 73.3658H153.785C153.915 73.3658 154.039 73.4172 154.13 73.5087C154.222 73.6002 154.273 73.7243 154.273 73.8536C154.273 73.983 154.222 74.1071 154.13 74.1986C154.039 74.2901 153.915 74.3415 153.785 74.3415ZM142.078 74.3415H136.224C136.095 74.3415 135.971 74.2901 135.879 74.1986C135.788 74.1071 135.737 73.983 135.737 73.8536C135.737 73.7243 135.788 73.6002 135.879 73.5087C135.971 73.4172 136.095 73.3658 136.224 73.3658H142.078C142.207 73.3658 142.331 73.4172 142.423 73.5087C142.514 73.6002 142.566 73.7243 142.566 73.8536C142.566 73.983 142.514 74.1071 142.423 74.1986C142.331 74.2901 142.207 74.3415 142.078 74.3415ZM130.371 74.3415H124.517C124.388 74.3415 124.264 74.2901 124.172 74.1986C124.081 74.1071 124.029 73.983 124.029 73.8536C124.029 73.7243 124.081 73.6002 124.172 73.5087C124.264 73.4172 124.388 73.3658 124.517 73.3658H130.371C130.5 73.3658 130.624 73.4172 130.716 73.5087C130.807 73.6002 130.858 73.7243 130.858 73.8536C130.858 73.983 130.807 74.1071 130.716 74.1986C130.624 74.2901 130.5 74.3415 130.371 74.3415ZM118.663 74.3415H112.81C112.68 74.3415 112.556 74.2901 112.465 74.1986C112.373 74.1071 112.322 73.983 112.322 73.8536C112.322 73.7243 112.373 73.6002 112.465 73.5087C112.556 73.4172 112.68 73.3658 112.81 73.3658H118.663C118.793 73.3658 118.917 73.4172 119.008 73.5087C119.1 73.6002 119.151 73.7243 119.151 73.8536C119.151 73.983 119.1 74.1071 119.008 74.1986C118.917 74.2901 118.793 74.3415 118.663 74.3415ZM106.956 74.3415H101.102C100.973 74.3415 100.849 74.2901 100.757 74.1986C100.666 74.1071 100.615 73.983 100.615 73.8536C100.615 73.7243 100.666 73.6002 100.757 73.5087C100.849 73.4172 100.973 73.3658 101.102 73.3658H106.956C107.085 73.3658 107.21 73.4172 107.301 73.5087C107.392 73.6002 107.444 73.7243 107.444 73.8536C107.444 73.983 107.392 74.1071 107.301 74.1986C107.21 74.2901 107.085 74.3415 106.956 74.3415ZM95.2487 74.3415H89.3951C89.2657 74.3415 89.1416 74.2901 89.0501 74.1986C88.9587 74.1071 88.9073 73.983 88.9073 73.8536C88.9073 73.7243 88.9587 73.6002 89.0501 73.5087C89.1416 73.4172 89.2657 73.3658 89.3951 73.3658H95.2487C95.3781 73.3658 95.5022 73.4172 95.5937 73.5087C95.6851 73.6002 95.7365 73.7243 95.7365 73.8536C95.7365 73.983 95.6851 74.1071 95.5937 74.1986C95.5022 74.2901 95.3781 74.3415 95.2487 74.3415ZM83.5414 74.3415H77.6878C77.5584 74.3415 77.4343 74.2901 77.3428 74.1986C77.2513 74.1071 77.2 73.983 77.2 73.8536C77.2 73.7243 77.2513 73.6002 77.3428 73.5087C77.4343 73.4172 77.5584 73.3658 77.6878 73.3658H83.5414C83.6708 73.3658 83.7949 73.4172 83.8863 73.5087C83.9778 73.6002 84.0292 73.7243 84.0292 73.8536C84.0292 73.983 83.9778 74.1071 83.8863 74.1986C83.7949 74.2901 83.6708 74.3415 83.5414 74.3415ZM71.8341 74.3415H65.9804C65.8511 74.3415 65.727 74.2901 65.6355 74.1986C65.544 74.1071 65.4926 73.983 65.4926 73.8536C65.4926 73.7243 65.544 73.6002 65.6355 73.5087C65.727 73.4172 65.8511 73.3658 65.9804 73.3658H71.8341C71.9635 73.3658 72.0875 73.4172 72.179 73.5087C72.2705 73.6002 72.3219 73.7243 72.3219 73.8536C72.3219 73.983 72.2705 74.1071 72.179 74.1986C72.0875 74.2901 71.9635 74.3415 71.8341 74.3415ZM60.1268 74.3415H54.2731C54.1438 74.3415 54.0197 74.2901 53.9282 74.1986C53.8367 74.1071 53.7853 73.983 53.7853 73.8536C53.7853 73.7243 53.8367 73.6002 53.9282 73.5087C54.0197 73.4172 54.1438 73.3658 54.2731 73.3658H60.1268C60.2562 73.3658 60.3802 73.4172 60.4717 73.5087C60.5632 73.6002 60.6146 73.7243 60.6146 73.8536C60.6146 73.983 60.5632 74.1071 60.4717 74.1986C60.3802 74.2901 60.2562 74.3415 60.1268 74.3415ZM48.4195 74.3415H42.5658C42.4364 74.3415 42.3124 74.2901 42.2209 74.1986C42.1294 74.1071 42.078 73.983 42.078 73.8536C42.078 73.7243 42.1294 73.6002 42.2209 73.5087C42.3124 73.4172 42.4364 73.3658 42.5658 73.3658H48.4195C48.5488 73.3658 48.6729 73.4172 48.7644 73.5087C48.8559 73.6002 48.9073 73.7243 48.9073 73.8536C48.9073 73.983 48.8559 74.1071 48.7644 74.1986C48.6729 74.2901 48.5488 74.3415 48.4195 74.3415Z" fill="#1682FC"/>
<path d="M153.785 138.478H147.932C147.803 138.476 147.68 138.423 147.59 138.332C147.499 138.241 147.446 138.119 147.444 137.99C147.444 137.861 147.495 137.737 147.587 137.645C147.678 137.554 147.802 137.502 147.932 137.502H153.785C153.915 137.502 154.039 137.554 154.13 137.645C154.222 137.737 154.273 137.861 154.273 137.99C154.273 138.12 154.222 138.244 154.13 138.335C154.039 138.427 153.915 138.478 153.785 138.478ZM142.078 138.478H136.224C136.096 138.476 135.973 138.423 135.882 138.332C135.791 138.241 135.739 138.119 135.737 137.99C135.737 137.861 135.788 137.737 135.879 137.645C135.971 137.554 136.095 137.502 136.224 137.502H142.078C142.207 137.502 142.331 137.554 142.423 137.645C142.514 137.737 142.566 137.861 142.566 137.99C142.566 138.12 142.514 138.244 142.423 138.335C142.331 138.427 142.207 138.478 142.078 138.478ZM130.371 138.478H124.517C124.388 138.476 124.266 138.423 124.175 138.332C124.084 138.241 124.032 138.119 124.029 137.99C124.029 137.861 124.081 137.737 124.172 137.645C124.264 137.554 124.388 137.502 124.517 137.502H130.371C130.5 137.502 130.624 137.554 130.716 137.645C130.807 137.737 130.858 137.861 130.858 137.99C130.858 138.12 130.807 138.244 130.716 138.335C130.624 138.427 130.5 138.478 130.371 138.478ZM118.663 138.478H112.81C112.681 138.476 112.558 138.423 112.468 138.332C112.377 138.241 112.324 138.119 112.322 137.99C112.322 137.861 112.373 137.737 112.465 137.645C112.556 137.554 112.68 137.502 112.81 137.502H118.663C118.793 137.502 118.917 137.554 119.008 137.645C119.1 137.737 119.151 137.861 119.151 137.99C119.151 138.12 119.1 138.244 119.008 138.335C118.917 138.427 118.793 138.478 118.663 138.478ZM106.956 138.478H101.102C100.974 138.476 100.851 138.423 100.76 138.332C100.669 138.241 100.617 138.119 100.615 137.99C100.615 137.861 100.666 137.737 100.757 137.645C100.849 137.554 100.973 137.502 101.102 137.502H106.956C107.085 137.502 107.21 137.554 107.301 137.645C107.392 137.737 107.444 137.861 107.444 137.99C107.444 138.12 107.392 138.244 107.301 138.335C107.21 138.427 107.085 138.478 106.956 138.478ZM95.2487 138.478H89.3951C89.2665 138.476 89.1439 138.423 89.0529 138.332C88.962 138.241 88.9098 138.119 88.9073 137.99C88.9073 137.861 88.9587 137.737 89.0501 137.645C89.1416 137.554 89.2657 137.502 89.3951 137.502H95.2487C95.3781 137.502 95.5022 137.554 95.5937 137.645C95.6851 137.737 95.7365 137.861 95.7365 137.99C95.7365 138.12 95.6851 138.244 95.5937 138.335C95.5022 138.427 95.3781 138.478 95.2487 138.478ZM83.5414 138.478H77.6878C77.5592 138.476 77.4365 138.423 77.3456 138.332C77.2546 138.241 77.2024 138.119 77.2 137.99C77.2 137.861 77.2513 137.737 77.3428 137.645C77.4343 137.554 77.5584 137.502 77.6878 137.502H83.5414C83.6708 137.502 83.7949 137.554 83.8863 137.645C83.9778 137.737 84.0292 137.861 84.0292 137.99C84.0292 138.12 83.9778 138.244 83.8863 138.335C83.7949 138.427 83.6708 138.478 83.5414 138.478ZM71.8341 138.478H65.9804C65.8518 138.476 65.7292 138.423 65.6383 138.332C65.5473 138.241 65.4951 138.119 65.4926 137.99C65.4926 137.861 65.544 137.737 65.6355 137.645C65.727 137.554 65.8511 137.502 65.9804 137.502H71.8341C71.9635 137.502 72.0875 137.554 72.179 137.645C72.2705 137.737 72.3219 137.861 72.3219 137.99C72.3219 138.12 72.2705 138.244 72.179 138.335C72.0875 138.427 71.9635 138.478 71.8341 138.478ZM60.1268 138.478H54.2731C54.1445 138.476 54.0219 138.423 53.931 138.332C53.84 138.241 53.7878 138.119 53.7853 137.99C53.7853 137.861 53.8367 137.737 53.9282 137.645C54.0197 137.554 54.1438 137.502 54.2731 137.502H60.1268C60.2562 137.502 60.3802 137.554 60.4717 137.645C60.5632 137.737 60.6146 137.861 60.6146 137.99C60.6146 138.12 60.5632 138.244 60.4717 138.335C60.3802 138.427 60.2562 138.478 60.1268 138.478ZM48.4195 138.478H42.5658C42.4372 138.476 42.3146 138.423 42.2236 138.332C42.1327 138.241 42.0805 138.119 42.078 137.99C42.078 137.861 42.1294 137.737 42.2209 137.645C42.3124 137.554 42.4364 137.502 42.5658 137.502H48.4195C48.5488 137.502 48.6729 137.554 48.7644 137.645C48.8559 137.737 48.9073 137.861 48.9073 137.99C48.9073 138.12 48.8559 138.244 48.7644 138.335C48.6729 138.427 48.5488 138.478 48.4195 138.478Z" fill="#1682FC"/>
<path d="M100 133.044C93.6529 133.046 87.5015 130.846 82.5941 126.821C77.6866 122.796 74.3267 117.194 73.0869 110.969C71.847 104.744 72.804 98.2817 75.7946 92.6833C78.7853 87.0849 83.6246 82.6967 89.488 80.2664C95.3515 77.836 101.876 77.514 107.95 79.3551C114.025 81.1962 119.273 85.0866 122.8 90.3633C126.327 95.64 127.916 101.977 127.295 108.293C126.674 114.61 123.882 120.516 119.395 125.005C116.854 127.56 113.832 129.587 110.503 130.967C107.173 132.346 103.604 133.053 100 133.044ZM100 81.1122C94.3377 81.1161 88.8519 83.083 84.477 86.6777C80.1021 90.2725 77.1088 95.2728 76.0069 100.827C74.905 106.381 75.7627 112.145 78.434 117.138C81.1052 122.13 85.4247 126.043 90.6566 128.208C95.8886 130.373 101.709 130.658 107.128 129.013C112.546 127.368 117.226 123.896 120.371 119.187C123.517 114.479 124.932 108.825 124.377 103.19C123.822 97.5554 121.33 92.2871 117.327 88.2829C115.056 86.0023 112.355 84.1944 109.381 82.9636C106.407 81.7328 103.219 81.1035 100 81.1122Z" fill="#BDC6DC"/>
<path d="M78.2243 59.0049H72.5853V65.0439H78.2243V59.0049Z" fill="#464646"/>
<path d="M138.839 59.0049H132.8V65.0439H138.839V59.0049Z" fill="#464646"/>
<path d="M78.2243 66.5073H61.1609C60.7728 66.5073 60.4006 66.3531 60.1261 66.0787C59.8517 65.8042 59.6975 65.432 59.6975 65.0439V59.0049C59.6975 58.6168 59.8517 58.2445 60.1261 57.9701C60.4006 57.6956 60.7728 57.5415 61.1609 57.5415H78.2243C78.6125 57.5415 78.9847 57.6956 79.2591 57.9701C79.5336 58.2445 79.6877 58.6168 79.6877 59.0049V65.0439C79.6877 65.2361 79.6499 65.4264 79.5764 65.6039C79.5028 65.7815 79.395 65.9428 79.2591 66.0787C79.1232 66.2146 78.9619 66.3224 78.7844 66.3959C78.6068 66.4695 78.4165 66.5073 78.2243 66.5073ZM62.6243 63.5805H76.7609V60.4683H62.6243V63.5805Z" fill="#BDC6DC"/>
<path d="M138.839 66.5073H121.776C121.387 66.5073 121.015 66.3531 120.741 66.0787C120.466 65.8042 120.312 65.432 120.312 65.0439V59.0049C120.312 58.6168 120.466 58.2445 120.741 57.9701C121.015 57.6956 121.387 57.5415 121.776 57.5415H138.839C139.227 57.5415 139.599 57.6956 139.874 57.9701C140.148 58.2445 140.302 58.6168 140.302 59.0049V65.0439C140.302 65.2361 140.265 65.4264 140.191 65.6039C140.117 65.7815 140.01 65.9428 139.874 66.0787C139.738 66.2146 139.577 66.3224 139.399 66.3959C139.221 66.4695 139.031 66.5073 138.839 66.5073ZM123.239 63.5805H137.376V60.4683H123.239V63.5805Z" fill="#BDC6DC"/>
<path d="M145.629 147.649H54.3707C47.0536 147.649 41.1024 141.698 41.1024 134.38V76.839C41.1024 69.5317 47.0536 63.5805 54.3707 63.5805H145.629C152.946 63.5805 158.898 69.5317 158.898 76.839V134.38C158.898 141.698 152.946 147.649 145.629 147.649ZM54.3707 66.5073C48.6731 66.5073 44.0292 71.1415 44.0292 76.839V134.38C44.0318 137.122 45.1222 139.751 47.061 141.69C48.9999 143.629 51.6288 144.719 54.3707 144.722H145.629C148.371 144.719 151 143.629 152.939 141.69C154.878 139.751 155.968 137.122 155.971 134.38V76.839C155.971 71.1415 151.327 66.5073 145.629 66.5073H54.3707Z" fill="#BDC6DC"/>
</svg>
